<?xml version="1.0" standalone="no"?>
<!DOCTYPE svg PUBLIC "-//W3C//DTD SVG 20010904//EN"
 "http://www.w3.org/TR/2001/REC-SVG-20010904/DTD/svg10.dtd">
<svg version="1.0" xmlns="http://www.w3.org/2000/svg"
 width="500.000000pt" height="500.000000pt" viewBox="0 0 500.000000 500.000000"
 preserveAspectRatio="xMidYMid meet">
<metadata>
Created by potrace 1.14, written by Peter Selinger 2001-2017
</metadata>
<g transform="translate(0.000000,500.000000) scale(0.100000,-0.100000)"
fill="#000000" stroke="none">
<path d="M2390 4213 c-123 -143 -282 -356 -359 -481 -35 -56 -66 -102 -70
-102 -5 0 -37 22 -72 48 -135 102 -346 235 -481 303 -48 24 -62 28 -69 17 -15
-24 -118 -342 -143 -443 -13 -55 -34 -149 -46 -209 -11 -61 -22 -111 -24 -113
-2 -2 -57 12 -123 31 -180 52 -485 107 -653 118 l-45 3 3 -145 c15 -701 207
-1231 574 -1586 198 -191 423 -328 730 -443 139 -52 399 -128 521 -152 69 -13
69 -13 115 -79 102 -144 234 -320 241 -320 8 0 179 231 242 326 l34 52 170 42
c851 209 1320 560 1566 1174 110 276 179 661 179 1011 l0 121 -37 -4 c-221
-20 -529 -77 -688 -127 -44 -14 -83 -25 -86 -25 -3 0 -9 26 -13 58 -13 110
-68 329 -132 522 -36 107 -68 198 -72 202 -16 16 -372 -198 -540 -324 -51 -39
-95 -69 -96 -67 -2 2 -29 46 -60 96 -100 162 -277 396 -415 548 -25 28 -48 51
-52 53 -3 1 -48 -46 -99 -105z"/>
</g>
</svg>
