<svg width="39" height="25" viewBox="0 0 39 25" fill="none" xmlns="http://www.w3.org/2000/svg">
<path fill-rule="evenodd" clip-rule="evenodd" d="M38.886 12.5C38.886 12.1317 38.7397 11.7785 38.4792 11.518C38.2188 11.2576 37.8656 11.1113 37.4973 11.1113L4.74355 11.1113L13.484 2.37364C13.7448 2.11288 13.8912 1.75922 13.8912 1.39045C13.8912 1.02168 13.7448 0.668011 13.484 0.40725C13.2232 0.14649 12.8696 -1.64726e-06 12.5008 -1.67061e-06C12.132 -1.69396e-06 11.7784 0.14649 11.5176 0.40725L0.408051 11.5168C0.278729 11.6458 0.176125 11.799 0.106118 11.9678C0.0361065 12.1365 7.2862e-05 12.3173 7.28565e-05 12.5C7.28509e-05 12.6827 0.0361065 12.8635 0.106118 13.0322C0.176125 13.201 0.278729 13.3542 0.408051 13.4832L11.5176 24.5927C11.7784 24.8535 12.132 25 12.5008 25C12.8696 25 13.2232 24.8535 13.484 24.5927C13.7448 24.332 13.8912 23.9783 13.8912 23.6096C13.8912 23.2408 13.7448 22.8871 13.484 22.6264L4.74355 13.8887L37.4973 13.8887C37.8656 13.8887 38.2188 13.7424 38.4792 13.482C38.7397 13.2215 38.886 12.8683 38.886 12.5Z" fill="#111111"/>
</svg>
