<svg viewBox="0 0 26 27" fill="none" xmlns="http://www.w3.org/2000/svg">
<path d="M19.0947 16.4204C19.0947 17.5491 19.4158 17.9993 20.2557 17.9993C22.1275 17.9993 23.3194 15.6141 23.3194 11.6474C23.3194 5.58436 18.9012 2.68186 13.3851 2.68186C7.71044 2.68186 2.54909 6.48736 2.54909 13.6791C2.54909 20.5484 7.06409 24.2894 13.9978 24.2894C16.3521 24.2894 17.9323 24.0314 20.3498 23.2251L20.8684 25.3845C18.4819 26.1599 15.9315 26.3843 13.9656 26.3843C4.87109 26.3843 0 21.3855 0 13.6778C0 5.90552 5.64509 0.616516 13.4173 0.616516C21.5121 0.616516 25.8 5.45402 25.8 11.388C25.8 16.419 24.2211 20.2568 19.2546 20.2568C16.9958 20.2568 15.5136 19.3538 15.3201 17.3529C14.7396 19.5782 13.1916 20.2568 11.094 20.2568C8.28825 20.2568 5.934 18.0947 5.934 13.7423C5.934 9.35627 7.99934 6.64727 11.7081 6.64727C13.6753 6.64727 14.9008 7.42127 15.4464 8.64677L16.383 6.93752H19.092V16.4204H19.0947ZM15.1293 12.1634C15.1293 10.391 13.8057 9.64786 12.7092 9.64786C11.5159 9.64786 10.195 10.614 10.195 13.4534C10.195 15.7109 11.1948 16.9686 12.7092 16.9686C13.7734 16.9686 15.1293 16.2914 15.1293 14.4209V12.1634Z"/>
</svg>
