<svg viewBox="0 0 350 90" fill="none" xmlns="http://www.w3.org/2000/svg">
<path d="M52.9286 88.9221C31.9862 61.6046 20.5934 35.4827 52.9286 0.133522C85.2637 35.4827 73.8709 61.6046 52.9286 88.9221Z" fill="#0E8649" fill-opacity="0.8"/>
<path d="M53.2593 80.8761C44.7143 51.8202 43.587 26.6989 81.0238 7.43308C96.353 46.6466 78.8889 64.7397 53.2593 80.8761Z" fill="#2F935F" fill-opacity="0.8"/>
<path d="M53.0447 81.0086C61.5898 51.9528 62.7171 26.8315 25.2803 7.56565C9.95108 46.7792 27.4151 64.8722 53.0447 81.0086Z" fill="#2F935F" fill-opacity="0.8"/>
<path d="M53.0799 80.7944C50.6387 50.3212 42.599 26.3872 0.160411 22.7921C-0.140703 65.3816 22.9577 75.5765 53.0799 80.7944Z" fill="#0E703F" fill-opacity="0.8"/>
<path d="M53.0377 80.7944C55.4789 50.3212 63.5186 26.3872 105.957 22.7921C106.258 65.3816 83.1598 75.5765 53.0377 80.7944Z" fill="#38815F" fill-opacity="0.8"/>
<path d="M133.902 43.046C133.423 43.046 133.029 42.9091 132.721 42.6352C132.447 42.3272 132.31 41.9164 132.31 41.4029V8.18126C132.31 7.73625 132.464 7.35971 132.772 7.05162C133.115 6.74354 133.525 6.5895 134.005 6.5895H146.02C149.785 6.5895 152.695 7.49663 154.749 9.3109C156.837 11.1252 157.881 13.6925 157.881 17.013C157.881 20.3677 156.837 22.9693 154.749 24.8178C152.661 26.632 149.751 27.5392 146.02 27.5392H135.494V41.4029C135.494 41.9164 135.34 42.3272 135.032 42.6352C134.758 42.9091 134.381 43.046 133.902 43.046ZM145.815 24.8178C151.737 24.8178 154.698 22.2162 154.698 17.013C154.698 11.8783 151.737 9.3109 145.815 9.3109H135.494V24.8178H145.815Z" fill="#333333"/>
<path d="M173.647 43.1487C171.354 43.1487 169.334 42.6181 167.588 41.5569C165.877 40.4958 164.542 38.9896 163.583 37.0384C162.625 35.0872 162.145 32.8108 162.145 30.2092C162.145 27.6076 162.625 25.3312 163.583 23.38C164.542 21.4288 165.877 19.9227 167.588 18.8615C169.334 17.8003 171.354 17.2697 173.647 17.2697C175.906 17.2697 177.909 17.8003 179.655 18.8615C181.401 19.9227 182.736 21.4288 183.66 23.38C184.618 25.3312 185.098 27.6076 185.098 30.2092C185.098 32.8108 184.618 35.0872 183.66 37.0384C182.736 38.9896 181.401 40.4958 179.655 41.5569C177.909 42.6181 175.906 43.1487 173.647 43.1487ZM173.596 40.376C176.232 40.376 178.268 39.5031 179.706 37.7573C181.144 36.0114 181.863 33.4954 181.863 30.2092C181.863 26.9915 181.127 24.4926 179.655 22.7125C178.217 20.8983 176.215 19.9911 173.647 19.9911C171.046 19.9911 169.026 20.8983 167.588 22.7125C166.15 24.4926 165.432 26.9915 165.432 30.2092C165.432 33.4954 166.133 36.0114 167.537 37.7573C168.94 39.5031 170.96 40.376 173.596 40.376Z" fill="#333333"/>
<path d="M211.332 6.33276C211.811 6.33276 212.188 6.48681 212.462 6.79489C212.77 7.06874 212.924 7.44529 212.924 7.92453V41.4029C212.924 41.8821 212.77 42.2758 212.462 42.5839C212.188 42.8577 211.811 42.9947 211.332 42.9947C210.853 42.9947 210.476 42.8577 210.202 42.5839C209.929 42.2758 209.792 41.8821 209.792 41.4029V38.014C209.039 39.6913 207.926 40.975 206.454 41.865C204.982 42.7208 203.236 43.1487 201.217 43.1487C199.026 43.1487 197.092 42.6181 195.414 41.5569C193.737 40.4615 192.436 38.9382 191.512 36.987C190.588 35.0016 190.126 32.7081 190.126 30.1065C190.126 27.5392 190.588 25.297 191.512 23.38C192.436 21.4288 193.737 19.9227 195.414 18.8615C197.092 17.8003 199.026 17.2697 201.217 17.2697C203.236 17.2697 204.982 17.7147 206.454 18.6047C207.926 19.4605 209.039 20.7271 209.792 22.4044V7.92453C209.792 7.44529 209.929 7.06874 210.202 6.79489C210.476 6.48681 210.853 6.33276 211.332 6.33276ZM201.627 40.376C204.229 40.376 206.232 39.5031 207.635 37.7573C209.073 35.9772 209.792 33.4612 209.792 30.2092C209.792 26.9572 209.09 24.4412 207.686 22.6612C206.283 20.8811 204.28 19.9911 201.679 19.9911C199.043 19.9911 197.006 20.8811 195.568 22.6612C194.131 24.407 193.412 26.8888 193.412 30.1065C193.412 33.3585 194.131 35.8916 195.568 37.7059C197.006 39.4859 199.026 40.376 201.627 40.376Z" fill="#333333"/>
<path d="M231.062 43.1487C228.768 43.1487 226.749 42.6181 225.003 41.5569C223.291 40.4958 221.956 38.9896 220.998 37.0384C220.039 35.0872 219.56 32.8108 219.56 30.2092C219.56 27.6076 220.039 25.3312 220.998 23.38C221.956 21.4288 223.291 19.9227 225.003 18.8615C226.749 17.8003 228.768 17.2697 231.062 17.2697C233.321 17.2697 235.324 17.8003 237.069 18.8615C238.815 19.9227 240.15 21.4288 241.074 23.38C242.033 25.3312 242.512 27.6076 242.512 30.2092C242.512 32.8108 242.033 35.0872 241.074 37.0384C240.15 38.9896 238.815 40.4958 237.069 41.5569C235.324 42.6181 233.321 43.1487 231.062 43.1487ZM231.01 40.376C233.646 40.376 235.683 39.5031 237.121 37.7573C238.558 36.0114 239.277 33.4954 239.277 30.2092C239.277 26.9915 238.541 24.4926 237.069 22.7125C235.632 20.8983 233.629 19.9911 231.062 19.9911C228.46 19.9911 226.441 20.8983 225.003 22.7125C223.565 24.4926 222.846 26.9915 222.846 30.2092C222.846 33.4954 223.548 36.0114 224.951 37.7573C226.355 39.5031 228.375 40.376 231.01 40.376Z" fill="#333333"/>
<path d="M250.724 43.046C250.245 43.046 249.851 42.9091 249.543 42.6352C249.269 42.3614 249.132 41.9677 249.132 41.4543V7.92453C249.132 7.41106 249.269 7.01739 249.543 6.74354C249.851 6.46969 250.245 6.33276 250.724 6.33276C251.169 6.33276 251.528 6.46969 251.802 6.74354C252.11 7.01739 252.264 7.41106 252.264 7.92453V41.4543C252.264 41.9677 252.11 42.3614 251.802 42.6352C251.528 42.9091 251.169 43.046 250.724 43.046Z" fill="#333333"/>
<path d="M270.425 43.1487C268.131 43.1487 266.111 42.6181 264.366 41.5569C262.654 40.4958 261.319 38.9896 260.361 37.0384C259.402 35.0872 258.923 32.8108 258.923 30.2092C258.923 27.6076 259.402 25.3312 260.361 23.38C261.319 21.4288 262.654 19.9227 264.366 18.8615C266.111 17.8003 268.131 17.2697 270.425 17.2697C272.684 17.2697 274.686 17.8003 276.432 18.8615C278.178 19.9227 279.513 21.4288 280.437 23.38C281.396 25.3312 281.875 27.6076 281.875 30.2092C281.875 32.8108 281.396 35.0872 280.437 37.0384C279.513 38.9896 278.178 40.4958 276.432 41.5569C274.686 42.6181 272.684 43.1487 270.425 43.1487ZM270.373 40.376C273.009 40.376 275.046 39.5031 276.484 37.7573C277.921 36.0114 278.64 33.4954 278.64 30.2092C278.64 26.9915 277.904 24.4926 276.432 22.7125C274.995 20.8983 272.992 19.9911 270.425 19.9911C267.823 19.9911 265.803 20.8983 264.366 22.7125C262.928 24.4926 262.209 26.9915 262.209 30.2092C262.209 33.4954 262.911 36.0114 264.314 37.7573C265.718 39.5031 267.737 40.376 270.373 40.376Z" fill="#333333"/>
<path d="M308.315 17.3724C308.794 17.3724 309.171 17.5265 309.445 17.8345C309.753 18.1084 309.907 18.4849 309.907 18.9642V41.3516C309.907 44.9801 308.999 47.7186 307.185 49.5671C305.405 51.4498 302.752 52.3912 299.226 52.3912C297.378 52.3912 295.718 52.2029 294.246 51.8264C292.808 51.4841 291.456 50.9364 290.189 50.1833C288.957 49.4302 288.341 48.6942 288.341 47.9753C288.341 47.5988 288.443 47.2907 288.649 47.0511C288.889 46.8115 289.179 46.6917 289.522 46.6917C289.727 46.6917 290.001 46.7772 290.343 46.9484C290.72 47.1538 290.977 47.2907 291.114 47.3592C292.277 48.0096 293.476 48.5402 294.708 48.9509C295.94 49.396 297.463 49.6185 299.278 49.6185C301.777 49.6185 303.659 48.9509 304.926 47.6159C306.193 46.2809 306.826 44.2955 306.826 41.6596V36.7817C306.107 38.459 304.994 39.7598 303.488 40.684C302.016 41.5741 300.219 42.0191 298.097 42.0191C295.906 42.0191 293.955 41.5056 292.243 40.4787C290.566 39.4517 289.248 37.9969 288.289 36.1141C287.365 34.2314 286.903 32.0748 286.903 29.6444C286.903 27.214 287.365 25.0574 288.289 23.1746C289.248 21.2919 290.566 19.8371 292.243 18.8101C293.955 17.7832 295.906 17.2697 298.097 17.2697C300.185 17.2697 301.965 17.7147 303.437 18.6047C304.909 19.4605 306.021 20.7271 306.774 22.4044V18.9642C306.774 18.4849 306.911 18.1084 307.185 17.8345C307.459 17.5265 307.836 17.3724 308.315 17.3724ZM298.508 39.2463C301.109 39.2463 303.129 38.3905 304.567 36.679C306.038 34.9674 306.774 32.6225 306.774 29.6444C306.774 26.6663 306.038 24.3214 304.567 22.6098C303.095 20.864 301.075 19.9911 298.508 19.9911C295.906 19.9911 293.869 20.8469 292.397 22.5585C290.925 24.2701 290.189 26.632 290.189 29.6444C290.189 32.6568 290.925 35.0187 292.397 36.7303C293.869 38.4076 295.906 39.2463 298.508 39.2463Z" fill="#333333"/>
<path d="M319.722 43.046C319.242 43.046 318.849 42.9091 318.541 42.6352C318.267 42.3614 318.13 41.9677 318.13 41.4543V18.9642C318.13 18.4507 318.267 18.057 318.541 17.7832C318.849 17.5093 319.242 17.3724 319.722 17.3724C320.201 17.3724 320.577 17.5093 320.851 17.7832C321.125 18.057 321.262 18.4507 321.262 18.9642V41.4543C321.262 41.9677 321.125 42.3614 320.851 42.6352C320.577 42.9091 320.201 43.046 319.722 43.046ZM319.722 11.5702C319.037 11.5702 318.472 11.3648 318.027 10.954C317.616 10.5432 317.411 10.0126 317.411 9.36225C317.411 8.67762 317.616 8.12992 318.027 7.71914C318.472 7.30836 319.037 7.10297 319.722 7.10297C320.406 7.10297 320.954 7.30836 321.365 7.71914C321.81 8.12992 322.032 8.67762 322.032 9.36225C322.032 10.0126 321.81 10.5432 321.365 10.954C320.954 11.3648 320.406 11.5702 319.722 11.5702Z" fill="#333333"/>
<path d="M348.614 37.4492C348.922 37.4492 349.178 37.5861 349.384 37.8599C349.623 38.0996 349.743 38.3905 349.743 38.7328C349.743 39.4859 349.161 40.2219 347.997 40.9408C345.533 42.4127 342.931 43.1487 340.193 43.1487C336.393 43.1487 333.398 42.002 331.207 39.7084C329.016 37.4149 327.921 34.2656 327.921 30.2606C327.921 27.6932 328.4 25.4339 329.358 23.4827C330.351 21.4973 331.72 19.974 333.466 18.9128C335.246 17.8174 337.283 17.2697 339.576 17.2697C342.794 17.2697 345.327 18.3138 347.176 20.4019C349.059 22.4558 350 25.297 350 28.9255C350 29.5417 349.863 30.0038 349.589 30.3119C349.315 30.5858 348.87 30.7227 348.254 30.7227H331.156C331.258 33.872 332.08 36.2682 333.62 37.9113C335.161 39.5544 337.334 40.376 340.141 40.376C341.613 40.376 342.846 40.1877 343.838 39.8111C344.831 39.4004 345.892 38.8698 347.022 38.2194C347.775 37.7059 348.306 37.4492 348.614 37.4492ZM339.576 19.8371C337.18 19.8371 335.263 20.5902 333.826 22.0964C332.388 23.6025 331.532 25.7078 331.258 28.4121H347.125C347.056 25.6735 346.371 23.5683 345.071 22.0964C343.77 20.5902 341.938 19.8371 339.576 19.8371Z" fill="#333333"/>
<path d="M145.575 83.7643C145.894 83.7643 146.134 83.8442 146.294 84.004C146.476 84.1409 146.568 84.3577 146.568 84.6544C146.568 84.951 146.476 85.1793 146.294 85.339C146.134 85.4987 145.894 85.5786 145.575 85.5786H129.965C129.646 85.5786 129.395 85.4987 129.212 85.339C129.03 85.1793 128.938 84.9624 128.938 84.6886C128.938 84.4147 129.041 84.1409 129.247 83.867L143.555 63.2597H129.897C129.623 63.2597 129.395 63.1798 129.212 63.0201C129.053 62.8603 128.973 62.6435 128.973 62.3697C128.973 62.073 129.053 61.8448 129.212 61.685C129.395 61.5253 129.623 61.4454 129.897 61.4454H145.198C145.518 61.4454 145.769 61.5367 145.952 61.7193C146.134 61.879 146.225 62.0958 146.225 62.3697C146.225 62.6435 146.134 62.906 145.952 63.157L131.609 83.7643H145.575ZM137.599 59.5627C137.211 59.5627 136.846 59.3915 136.504 59.0492L133.354 55.6603C133.149 55.4549 133.046 55.2153 133.046 54.9414C133.046 54.7132 133.126 54.5193 133.286 54.3595C133.468 54.1769 133.674 54.0857 133.902 54.0857C134.176 54.0857 134.404 54.1884 134.587 54.3937L137.599 57.8511L140.611 54.3937C140.817 54.1655 141.045 54.0514 141.296 54.0514C141.524 54.0514 141.718 54.1427 141.878 54.3253C142.061 54.485 142.152 54.6904 142.152 54.9414C142.152 55.1697 142.049 55.4093 141.844 55.6603L138.694 59.0492C138.375 59.3915 138.01 59.5627 137.599 59.5627Z" fill="#333333"/>
<path d="M156.605 68.5656C158.613 68.5656 160.108 69.0905 161.089 70.1402C162.093 71.19 162.596 72.776 162.596 74.8984V84.6544C162.596 84.9739 162.504 85.2363 162.322 85.4417C162.139 85.6243 161.888 85.7155 161.569 85.7155C161.249 85.7155 160.998 85.6243 160.815 85.4417C160.633 85.2363 160.542 84.9739 160.542 84.6544V82.6005C160.062 83.6274 159.366 84.4262 158.453 84.9967C157.541 85.5444 156.491 85.8182 155.304 85.8182C154.232 85.8182 153.25 85.6014 152.36 85.1678C151.493 84.7342 150.797 84.1409 150.272 83.3878C149.747 82.6347 149.485 81.7903 149.485 80.8547C149.462 79.5995 149.77 78.6296 150.409 77.945C151.048 77.2375 152.109 76.7355 153.593 76.4388C155.076 76.1421 157.153 75.9938 159.823 75.9938H160.542V74.7272C160.542 73.2211 160.234 72.1256 159.617 71.441C159.001 70.7336 158.031 70.3798 156.708 70.3798C155.019 70.3798 153.41 70.8248 151.881 71.7149C151.813 71.7605 151.63 71.886 151.333 72.0914C151.059 72.274 150.82 72.3653 150.614 72.3653C150.386 72.3653 150.192 72.2854 150.033 72.1256C149.896 71.9431 149.827 71.7263 149.827 71.4752C149.827 70.9732 150.227 70.4825 151.025 70.0033C151.824 69.5469 152.714 69.1931 153.695 68.9421C154.677 68.6911 155.647 68.5656 156.605 68.5656ZM155.475 84.004C156.959 84.004 158.168 83.5019 159.104 82.4978C160.062 81.4937 160.542 80.2157 160.542 78.6639V77.5342H159.891C157.7 77.5342 156.023 77.6255 154.859 77.8081C153.695 77.9906 152.874 78.3101 152.395 78.7665C151.915 79.2001 151.676 79.8391 151.676 80.6835C151.676 81.642 152.041 82.4407 152.771 83.0797C153.501 83.6959 154.403 84.004 155.475 84.004Z" fill="#333333"/>
<path d="M175.274 84.004C175.913 84.0724 176.232 84.3691 176.232 84.894C176.232 85.1678 176.13 85.3846 175.924 85.5444C175.719 85.7041 175.388 85.7726 174.931 85.7498L173.973 85.6813C172.239 85.5672 170.949 85.0423 170.105 84.1067C169.283 83.1482 168.872 81.699 168.872 79.7593V70.6537H166.271C165.997 70.6537 165.78 70.5852 165.62 70.4483C165.461 70.2886 165.381 70.0832 165.381 69.8321C165.381 69.5811 165.461 69.3757 165.62 69.216C165.78 69.0562 165.997 68.9763 166.271 68.9763H168.872V64.7316C168.872 64.3893 168.964 64.1269 169.146 63.9443C169.329 63.7618 169.58 63.6705 169.899 63.6705C170.219 63.6705 170.47 63.7618 170.652 63.9443C170.858 64.1269 170.961 64.3893 170.961 64.7316V68.9763H175.103C175.399 68.9763 175.627 69.0562 175.787 69.216C175.947 69.3757 176.027 69.5811 176.027 69.8321C176.027 70.0832 175.947 70.2886 175.787 70.4483C175.627 70.5852 175.399 70.6537 175.103 70.6537H170.961V79.862C170.961 81.2769 171.234 82.2924 171.782 82.9086C172.33 83.5019 173.186 83.8442 174.349 83.9355L175.274 84.004Z" fill="#333333"/>
<path d="M191.984 82.0185C192.189 82.0185 192.36 82.1098 192.497 82.2924C192.657 82.4521 192.737 82.6461 192.737 82.8743C192.737 83.3764 192.349 83.867 191.573 84.3463C189.93 85.3276 188.195 85.8182 186.37 85.8182C183.837 85.8182 181.84 85.0537 180.379 83.5247C178.919 81.9957 178.188 79.8962 178.188 77.2261C178.188 75.5146 178.508 74.0084 179.147 72.7076C179.809 71.384 180.722 70.3684 181.885 69.661C183.072 68.9307 184.43 68.5656 185.959 68.5656C188.104 68.5656 189.793 69.2616 191.025 70.6537C192.28 72.0229 192.908 73.9171 192.908 76.3361C192.908 76.7469 192.817 77.055 192.634 77.2604C192.452 77.4429 192.155 77.5342 191.744 77.5342H180.345C180.414 79.6338 180.961 81.2312 181.988 82.3266C183.015 83.422 184.464 83.9697 186.336 83.9697C187.317 83.9697 188.138 83.8442 188.8 83.5932C189.462 83.3193 190.169 82.9656 190.923 82.532C191.425 82.1897 191.778 82.0185 191.984 82.0185ZM185.959 70.2771C184.362 70.2771 183.084 70.7792 182.125 71.7833C181.167 72.7875 180.596 74.1909 180.414 75.9938H190.991C190.945 74.1681 190.489 72.7646 189.622 71.7833C188.755 70.7792 187.534 70.2771 185.959 70.2771Z" fill="#333333"/>
<path d="M203.909 85.8182C202.38 85.8182 201.033 85.4645 199.87 84.7571C198.706 84.0496 197.804 83.0455 197.165 81.7447C196.526 80.4439 196.207 78.9491 196.207 77.2604C196.207 75.5488 196.526 74.0426 197.165 72.7418C197.827 71.4182 198.74 70.3913 199.904 69.661C201.09 68.9307 202.448 68.5656 203.977 68.5656C204.845 68.5656 205.689 68.6797 206.51 68.9079C207.332 69.1361 208.062 69.4784 208.701 69.9348C209.112 70.2315 209.397 70.5054 209.557 70.7564C209.74 70.9846 209.831 71.2356 209.831 71.5095C209.831 71.7605 209.762 71.9659 209.626 72.1256C209.489 72.2854 209.317 72.3653 209.112 72.3653C208.884 72.3653 208.519 72.1713 208.017 71.7833C207.423 71.3497 206.83 71.0074 206.237 70.7564C205.643 70.5054 204.924 70.3798 204.08 70.3798C202.3 70.3798 200.908 70.996 199.904 72.2283C198.9 73.4379 198.398 75.1152 198.398 77.2604C198.398 79.3827 198.888 81.0372 199.87 82.2239C200.874 83.3878 202.266 83.9697 204.046 83.9697C204.913 83.9697 205.632 83.8442 206.202 83.5932C206.796 83.3422 207.435 82.9998 208.119 82.5662C208.325 82.4293 208.519 82.3038 208.701 82.1897C208.907 82.0756 209.066 82.0185 209.181 82.0185C209.409 82.0185 209.591 82.0984 209.728 82.2582C209.865 82.4179 209.934 82.6119 209.934 82.8401C209.934 83.1139 209.854 83.3536 209.694 83.559C209.534 83.7643 209.226 84.0268 208.77 84.3463C208.154 84.8027 207.4 85.1678 206.51 85.4417C205.643 85.6927 204.776 85.8182 203.909 85.8182Z" fill="#333333"/>
</svg>
