<svg width="607" height="603" viewBox="0 0 607 603" fill="none" xmlns="http://www.w3.org/2000/svg">
<path fill-rule="evenodd" clip-rule="evenodd" d="M607 596.533V603H247.31C174.6 562.167 110.454 488.541 56.8628 366.161C360.363 268.901 495.545 400.225 607 596.533Z" fill="#2F935F" fill-opacity="0.8"/>
<path fill-rule="evenodd" clip-rule="evenodd" d="M600.149 603H14.0649C9.98584 599.02 5.89209 594.947 1.7832 590.78C249.124 382.074 423.554 457.213 600.149 603Z" fill="#0E703F" fill-opacity="0.8"/>
<path fill-rule="evenodd" clip-rule="evenodd" d="M607 429.422V603H415.444C275.15 539.737 180.48 419.457 169.41 170.86C425.338 182.256 545.27 282.256 607 429.422Z" fill="#0E8649" fill-opacity="0.8"/>
<path fill-rule="evenodd" clip-rule="evenodd" d="M607 252.312V603H592.934C398.793 491.966 269.846 356.572 366.461 55.0852C492.631 110.335 566.981 176.805 607 252.312Z" fill="#2F935F" fill-opacity="0.8"/>
<path fill-rule="evenodd" clip-rule="evenodd" d="M607 18.1926V603H605.36C458.031 425.43 380.951 250.455 590.78 1.78345C596.355 7.28027 601.761 12.7498 607 18.1926Z" fill="#38815F" fill-opacity="0.8"/>
</svg>
