<svg viewBox="0 0 79 100" fill="none" xmlns="http://www.w3.org/2000/svg">
<path d="M39.2858 0C28.8703 0.0122874 18.885 4.15525 11.5201 11.5201C4.15529 18.8849 0.0123292 28.8703 4.1796e-05 39.2857C-0.0124328 47.7972 2.76783 56.0778 7.91433 62.8571C7.91433 62.8571 8.98576 64.2679 9.16076 64.4714L39.2858 100L69.425 64.4536C69.5822 64.2643 70.6572 62.8571 70.6572 62.8571L70.6608 62.8464C75.8047 56.07 78.5837 47.7933 78.5715 39.2857C78.5592 28.8703 74.4162 18.8849 67.0514 11.5201C59.6865 4.15525 49.7012 0.0122874 39.2858 0V0ZM39.2858 53.5714C36.4603 53.5714 33.6983 52.7336 31.349 51.1639C28.9998 49.5941 27.1687 47.363 26.0875 44.7526C25.0062 42.1422 24.7233 39.2699 25.2745 36.4987C25.8258 33.7276 27.1863 31.1821 29.1842 29.1842C31.1821 27.1863 33.7276 25.8257 36.4988 25.2745C39.2699 24.7233 42.1423 25.0062 44.7527 26.0874C47.363 27.1687 49.5942 28.9997 51.1639 31.349C52.7336 33.6983 53.5715 36.4603 53.5715 39.2857C53.5667 43.0731 52.0601 46.704 49.3821 49.382C46.704 52.0601 43.0731 53.5667 39.2858 53.5714V53.5714Z"/>
</svg>
