<svg width="22" height="23" viewBox="0 0 22 23" fill="none" xmlns="http://www.w3.org/2000/svg">
<path d="M15.796 13.7C15.884 12.974 15.95 12.248 15.95 11.5C15.95 10.752 15.884 10.026 15.796 9.3H19.514C19.69 10.004 19.8 10.741 19.8 11.5C19.8 12.259 19.69 12.996 19.514 13.7H15.796ZM13.849 19.816C14.509 18.595 15.015 17.275 15.367 15.9H18.612C17.5463 17.7351 15.8555 19.1252 13.849 19.816ZM13.574 13.7H8.426C8.316 12.974 8.25 12.248 8.25 11.5C8.25 10.752 8.316 10.015 8.426 9.3H13.574C13.673 10.015 13.75 10.752 13.75 11.5C13.75 12.248 13.673 12.974 13.574 13.7ZM11 20.256C10.087 18.936 9.35 17.473 8.899 15.9H13.101C12.65 17.473 11.913 18.936 11 20.256ZM6.6 7.1H3.388C4.44274 5.25994 6.13228 3.86764 8.14 3.184C7.48 4.405 6.985 5.725 6.6 7.1ZM3.388 15.9H6.6C6.985 17.275 7.48 18.595 8.14 19.816C6.13649 19.1248 4.44933 17.7345 3.388 15.9ZM2.486 13.7C2.31 12.996 2.2 12.259 2.2 11.5C2.2 10.741 2.31 10.004 2.486 9.3H6.204C6.116 10.026 6.05 10.752 6.05 11.5C6.05 12.248 6.116 12.974 6.204 13.7H2.486ZM11 2.733C11.913 4.053 12.65 5.527 13.101 7.1H8.899C9.35 5.527 10.087 4.053 11 2.733ZM18.612 7.1H15.367C15.0227 5.7376 14.5129 4.42249 13.849 3.184C15.873 3.877 17.556 5.274 18.612 7.1ZM11 0.5C4.917 0.5 0 5.45 0 11.5C0 14.4174 1.15893 17.2153 3.22183 19.2782C4.24327 20.2996 5.4559 21.1099 6.79048 21.6627C8.12506 22.2155 9.55546 22.5 11 22.5C13.9174 22.5 16.7153 21.3411 18.7782 19.2782C20.8411 17.2153 22 14.4174 22 11.5C22 10.0555 21.7155 8.62506 21.1627 7.29048C20.6099 5.9559 19.7996 4.74327 18.7782 3.72183C17.7567 2.70038 16.5441 1.89013 15.2095 1.33733C13.8749 0.784523 12.4445 0.5 11 0.5Z" fill="#666666"/>
</svg>
